<?xml version="1.0" standalone="no"?>
<!DOCTYPE svg PUBLIC "-//W3C//DTD SVG 1.1//EN"
"http://www.w3.org/Graphics/SVG/1.1/DTD/svg11.dtd">

<svg width="600" height="566" view_box="0 0 600 566"
xmlns="http://www.w3.org/2000/svg"
xmlns:link="http://www.w3.org/1999/xlink">\n\n<desc>Généré par Mocodo 2.3.7 le Mon, 19 Oct 2020 11:01:45</desc>

<rect id="frame" x="0" y="0" width="600" height="566" fill="#f7f7f7" stroke="none" stroke-width="0"/>

<!-- Association Publier -->
<line x1="196" y1="194" x2="324" y2="194" stroke="#8073ac" stroke-width="2"/>
<text x="242" y="186.0" fill="#b35806" font-family="Verdana" font-size="12">1,1</text>
<line x1="324" y1="68" x2="324" y2="194" stroke="#8073ac" stroke-width="2"/>
<text x="329.0" y="127" fill="#b35806" font-family="Verdana" font-size="12">1,N</text>
<g id="association-Publier">
	<path d="M 338 169 a 14 14 90 0 1 14 14 V 194 h -56 V 183 a 14 14 90 0 1 14 -14" fill="#b2abd2" stroke="#b2abd2" stroke-width="0"/>
	<path d="M 352 194.0 v 11 a 14 14 90 0 1 -14 14 H 310 a 14 14 90 0 1 -14 -14 V 194.0 H 56" fill="#d8daeb" stroke="#d8daeb" stroke-width="0"/>
	<rect x="296" y="169" width="56" height="50" fill="none" rx="14" stroke="#8073ac" stroke-width="2"/>
	<line x1="296" y1="194" x2="352" y2="194" stroke="#8073ac" stroke-width="1"/>
	<text x="303" y="186.7" fill="#000000" font-family="Verdana" font-size="12">Publier</text>
</g>

<!-- Association Payer -->
<line x1="445" y1="68" x2="445" y2="194" stroke="#8073ac" stroke-width="2"/>
<text x="450.0" y="119" fill="#b35806" font-family="Verdana" font-size="12">1,1</text>
<line x1="445" y1="320" x2="445" y2="194" stroke="#8073ac" stroke-width="2"/>
<text x="450.0" y="270" fill="#b35806" font-family="Verdana" font-size="12">1,N</text>
<g id="association-Payer">
	<path d="M 456 169 a 14 14 90 0 1 14 14 V 194 h -50 V 183 a 14 14 90 0 1 14 -14" fill="#b2abd2" stroke="#b2abd2" stroke-width="0"/>
	<path d="M 470 194.0 v 11 a 14 14 90 0 1 -14 14 H 434 a 14 14 90 0 1 -14 -14 V 194.0 H 50" fill="#d8daeb" stroke="#d8daeb" stroke-width="0"/>
	<rect x="420" y="169" width="50" height="50" fill="none" rx="14" stroke="#8073ac" stroke-width="2"/>
	<line x1="420" y1="194" x2="470" y2="194" stroke="#8073ac" stroke-width="1"/>
	<text x="427" y="186.7" fill="#000000" font-family="Verdana" font-size="12">Payer</text>
</g>

<!-- Association Avoir -->
<line x1="445" y1="320" x2="550" y2="320" stroke="#8073ac" stroke-width="2"/>
<text x="485" y="337.0" fill="#b35806" font-family="Verdana" font-size="12">1,1</text>
<line x1="550" y1="472" x2="550" y2="320" stroke="#8073ac" stroke-width="2"/>
<text x="555.0" y="379" fill="#b35806" font-family="Verdana" font-size="12">1,N</text>
<g id="association-Avoir">
	<path d="M 559 295 a 14 14 90 0 1 14 14 V 320 h -46 V 309 a 14 14 90 0 1 14 -14" fill="#b2abd2" stroke="#b2abd2" stroke-width="0"/>
	<path d="M 573 320.0 v 11 a 14 14 90 0 1 -14 14 H 541 a 14 14 90 0 1 -14 -14 V 320.0 H 46" fill="#d8daeb" stroke="#d8daeb" stroke-width="0"/>
	<rect x="527" y="295" width="46" height="50" fill="none" rx="14" stroke="#8073ac" stroke-width="2"/>
	<line x1="527" y1="320" x2="573" y2="320" stroke="#8073ac" stroke-width="1"/>
	<text x="534" y="312.7" fill="#000000" font-family="Verdana" font-size="12">Avoir</text>
</g>

<!-- Association Commenter -->
<line x1="196" y1="472" x2="196" y2="320" stroke="#8073ac" stroke-width="2"/>
<text x="201.0" y="422" fill="#b35806" font-family="Verdana" font-size="12">1,1</text>
<line x1="196" y1="194" x2="196" y2="320" stroke="#8073ac" stroke-width="2"/>
<text x="201.0" y="287" fill="#b35806" font-family="Verdana" font-size="12">1,N</text>
<g id="association-Commenter">
	<path d="M 225 295 a 14 14 90 0 1 14 14 V 320 h -86 V 309 a 14 14 90 0 1 14 -14" fill="#b2abd2" stroke="#b2abd2" stroke-width="0"/>
	<path d="M 239 320.0 v 11 a 14 14 90 0 1 -14 14 H 167 a 14 14 90 0 1 -14 -14 V 320.0 H 86" fill="#d8daeb" stroke="#d8daeb" stroke-width="0"/>
	<rect x="153" y="295" width="86" height="50" fill="none" rx="14" stroke="#8073ac" stroke-width="2"/>
	<line x1="153" y1="320" x2="239" y2="320" stroke="#8073ac" stroke-width="1"/>
	<text x="160" y="312.7" fill="#000000" font-family="Verdana" font-size="12">Commenter</text>
</g>

<!-- Association Generer -->
<line x1="324" y1="472" x2="445" y2="472" stroke="#8073ac" stroke-width="2"/>
<text x="359" y="489.0" fill="#b35806" font-family="Verdana" font-size="12">1,1</text>
<line x1="445" y1="320" x2="445" y2="472" stroke="#8073ac" stroke-width="2"/>
<text x="450.0" y="379" fill="#b35806" font-family="Verdana" font-size="12">1,N</text>
<g id="association-Generer">
	<path d="M 463 447 a 14 14 90 0 1 14 14 V 472 h -64 V 461 a 14 14 90 0 1 14 -14" fill="#b2abd2" stroke="#b2abd2" stroke-width="0"/>
	<path d="M 477 472.0 v 11 a 14 14 90 0 1 -14 14 H 427 a 14 14 90 0 1 -14 -14 V 472.0 H 64" fill="#d8daeb" stroke="#d8daeb" stroke-width="0"/>
	<rect x="413" y="447" width="64" height="50" fill="none" rx="14" stroke="#8073ac" stroke-width="2"/>
	<line x1="413" y1="472" x2="477" y2="472" stroke="#8073ac" stroke-width="1"/>
	<text x="420" y="464.7" fill="#000000" font-family="Verdana" font-size="12">Generer</text>
</g>

<!-- Association Commander -->
<line x1="324" y1="472" x2="324" y2="320" stroke="#8073ac" stroke-width="2"/>
<text x="329.0" y="430" fill="#b35806" font-family="Verdana" font-size="12">1,1</text>
<line x1="196" y1="194" x2="324" y2="320" stroke="#8073ac" stroke-width="2"/>
<text x="242" y="233.351638038" fill="#b35806" font-family="Verdana" font-size="12">1,N</text>
<g id="association-Commander">
	<path d="M 355 295 a 14 14 90 0 1 14 14 V 320 h -90 V 309 a 14 14 90 0 1 14 -14" fill="#b2abd2" stroke="#b2abd2" stroke-width="0"/>
	<path d="M 369 320.0 v 11 a 14 14 90 0 1 -14 14 H 293 a 14 14 90 0 1 -14 -14 V 320.0 H 90" fill="#d8daeb" stroke="#d8daeb" stroke-width="0"/>
	<rect x="279" y="295" width="90" height="50" fill="none" rx="14" stroke="#8073ac" stroke-width="2"/>
	<line x1="279" y1="320" x2="369" y2="320" stroke="#8073ac" stroke-width="1"/>
	<text x="286" y="312.7" fill="#000000" font-family="Verdana" font-size="12">Commander</text>
</g>

<!-- Association Ecrir -->
<line x1="60" y1="68" x2="60" y2="194" stroke="#8073ac" stroke-width="2"/>
<text x="65.0" y="144" fill="#b35806" font-family="Verdana" font-size="12">1,N</text>
<line x1="196" y1="194" x2="60" y2="194" stroke="#8073ac" stroke-width="2"/>
<text x="129" y="186.0" fill="#b35806" font-family="Verdana" font-size="12">1,1</text>
<g id="association-Ecrir">
	<path d="M 67 169 a 14 14 90 0 1 14 14 V 194 h -42 V 183 a 14 14 90 0 1 14 -14" fill="#b2abd2" stroke="#b2abd2" stroke-width="0"/>
	<path d="M 81 194.0 v 11 a 14 14 90 0 1 -14 14 H 53 a 14 14 90 0 1 -14 -14 V 194.0 H 42" fill="#d8daeb" stroke="#d8daeb" stroke-width="0"/>
	<rect x="39" y="169" width="42" height="50" fill="none" rx="14" stroke="#8073ac" stroke-width="2"/>
	<line x1="39" y1="194" x2="81" y2="194" stroke="#8073ac" stroke-width="1"/>
	<text x="46" y="186.7" fill="#000000" font-family="Verdana" font-size="12">Ecrir</text>
</g>

<!-- Association Editer -->
<line x1="324" y1="68" x2="196" y2="68" stroke="#8073ac" stroke-width="2"/>
<text x="254" y="85.0" fill="#b35806" font-family="Verdana" font-size="12">1,N</text>
<line x1="60" y1="68" x2="196" y2="68" stroke="#8073ac" stroke-width="2"/>
<text x="116" y="85.0" fill="#b35806" font-family="Verdana" font-size="12">1,N</text>
<g id="association-Editer">
	<path d="M 235 43 a 14 14 90 0 1 14 14 V 68 h -106 V 57 a 14 14 90 0 1 14 -14" fill="#b2abd2" stroke="#b2abd2" stroke-width="0"/>
	<path d="M 249 68.0 v 11 a 14 14 90 0 1 -14 14 H 157 a 14 14 90 0 1 -14 -14 V 68.0 H 106" fill="#d8daeb" stroke="#d8daeb" stroke-width="0"/>
	<rect x="143" y="43" width="106" height="50" fill="none" rx="14" stroke="#8073ac" stroke-width="2"/>
	<line x1="143" y1="68" x2="249" y2="68" stroke="#8073ac" stroke-width="1"/>
	<text x="178" y="60.7" fill="#000000" font-family="Verdana" font-size="12">Editer</text>
	<text x="150" y="85.8" fill="#000000" font-family="Verdana" font-size="12">Contrat.edition</text>
</g>

<!-- Association Concerner -->
<line x1="196" y1="194" x2="60" y2="320" stroke="#8073ac" stroke-width="2"/>
<text x="129" y="230.674896096" fill="#b35806" font-family="Verdana" font-size="12">1,1</text>
<line x1="60" y1="472" x2="60" y2="320" stroke="#8073ac" stroke-width="2"/>
<text x="65.0" y="430" fill="#b35806" font-family="Verdana" font-size="12">1,N</text>
<g id="association-Concerner">
	<path d="M 85 295 a 14 14 90 0 1 14 14 V 320 h -78 V 309 a 14 14 90 0 1 14 -14" fill="#b2abd2" stroke="#b2abd2" stroke-width="0"/>
	<path d="M 99 320.0 v 11 a 14 14 90 0 1 -14 14 H 35 a 14 14 90 0 1 -14 -14 V 320.0 H 78" fill="#d8daeb" stroke="#d8daeb" stroke-width="0"/>
	<rect x="21" y="295" width="78" height="50" fill="none" rx="14" stroke="#8073ac" stroke-width="2"/>
	<line x1="21" y1="320" x2="99" y2="320" stroke="#8073ac" stroke-width="1"/>
	<text x="28" y="312.7" fill="#000000" font-family="Verdana" font-size="12">Concerner</text>
</g>

<!-- Entity cde -->
<g id="entity-cde">
	<g id="frame-cde">
		<rect x="294" y="438" width="60" height="25" fill="#fdb863" stroke="#fdb863" stroke-width="0"/>
		<rect x="294" y="463.0" width="60" height="43" fill="#fee0b6" stroke="#fee0b6" stroke-width="0"/>
		<rect x="294" y="438" width="60" height="68" fill="none" stroke="#e08214" stroke-width="2"/>
		<line x1="294" y1="463" x2="354" y2="463" stroke="#e08214" stroke-width="1"/>
	</g>
	<text x="313" y="455.7" fill="#000000" font-family="Verdana" font-size="12">cde</text>
	<text x="299" y="480.8" fill="#000000" font-family="Verdana" font-size="12">Id_cde</text>
	<line x1="299" y1="483" x2="341" y2="483" stroke="#000000" stroke-width="1"/>
	<text x="299" y="497.8" fill="#000000" font-family="Verdana" font-size="12">qté_cde</text>
</g>

<!-- Entity Livre -->
<g id="entity-Livre">
	<g id="frame-Livre">
		<rect x="155" y="118" width="82" height="25" fill="#fdb863" stroke="#fdb863" stroke-width="0"/>
		<rect x="155" y="143.0" width="82" height="127" fill="#fee0b6" stroke="#fee0b6" stroke-width="0"/>
		<rect x="155" y="118" width="82" height="152" fill="none" stroke="#e08214" stroke-width="2"/>
		<line x1="155" y1="143" x2="237" y2="143" stroke="#e08214" stroke-width="1"/>
	</g>
	<text x="181" y="135.7" fill="#000000" font-family="Verdana" font-size="12">Livre</text>
	<text x="160" y="160.7" fill="#000000" font-family="Verdana" font-size="12">Id_li</text>
	<line x1="160" y1="163" x2="188" y2="163" stroke="#000000" stroke-width="1"/>
	<text x="160" y="177.7" fill="#000000" font-family="Verdana" font-size="12">Titre_l</text>
	<text x="160" y="194.8" fill="#000000" font-family="Verdana" font-size="12">Ss_titre_li</text>
	<text x="160" y="211.8" fill="#000000" font-family="Verdana" font-size="12">date_pub_li</text>
	<text x="160" y="228.8" fill="#000000" font-family="Verdana" font-size="12">Résumé_li</text>
	<text x="160" y="245.8" fill="#000000" font-family="Verdana" font-size="12">Num_sdbn</text>
	<text x="160" y="262.8" fill="#000000" font-family="Verdana" font-size="12">prix_li</text>
</g>

<!-- Entity Commentaire -->
<g id="entity-Commentaire">
	<g id="frame-Commentaire">
		<rect x="150" y="430" width="92" height="25" fill="#fdb863" stroke="#fdb863" stroke-width="0"/>
		<rect x="150" y="455.0" width="92" height="59" fill="#fee0b6" stroke="#fee0b6" stroke-width="0"/>
		<rect x="150" y="430" width="92" height="84" fill="none" stroke="#e08214" stroke-width="2"/>
		<line x1="150" y1="455" x2="242" y2="455" stroke="#e08214" stroke-width="1"/>
	</g>
	<text x="155" y="447.7" fill="#000000" font-family="Verdana" font-size="12">Commentaire</text>
	<text x="155" y="472.8" fill="#000000" font-family="Verdana" font-size="12">Id_com</text>
	<line x1="155" y1="475" x2="201" y2="475" stroke="#000000" stroke-width="1"/>
	<text x="155" y="489.8" fill="#000000" font-family="Verdana" font-size="12">Libellé_com</text>
	<text x="155" y="506.8" fill="#000000" font-family="Verdana" font-size="12">note_com</text>
</g>

<!-- Entity Facture -->
<g id="entity-Facture">
	<g id="frame-Facture">
		<rect x="410" y="278" width="70" height="25" fill="#fdb863" stroke="#fdb863" stroke-width="0"/>
		<rect x="410" y="303.0" width="70" height="59" fill="#fee0b6" stroke="#fee0b6" stroke-width="0"/>
		<rect x="410" y="278" width="70" height="84" fill="none" stroke="#e08214" stroke-width="2"/>
		<line x1="410" y1="303" x2="480" y2="303" stroke="#e08214" stroke-width="1"/>
	</g>
	<text x="422" y="295.7" fill="#000000" font-family="Verdana" font-size="12">Facture</text>
	<text x="415" y="320.8" fill="#000000" font-family="Verdana" font-size="12">Id_fact</text>
	<line x1="415" y1="323" x2="459" y2="323" stroke="#000000" stroke-width="1"/>
	<text x="415" y="337.8" fill="#000000" font-family="Verdana" font-size="12">Num_fact</text>
	<text x="415" y="354.8" fill="#000000" font-family="Verdana" font-size="12">date_fact</text>
</g>

<!-- Entity Paiment -->
<g id="entity-Paiment">
	<g id="frame-Paiment">
		<rect x="399" y="34" width="92" height="25" fill="#fdb863" stroke="#fdb863" stroke-width="0"/>
		<rect x="399" y="59.0" width="92" height="43" fill="#fee0b6" stroke="#fee0b6" stroke-width="0"/>
		<rect x="399" y="34" width="92" height="68" fill="none" stroke="#e08214" stroke-width="2"/>
		<line x1="399" y1="59" x2="491" y2="59" stroke="#e08214" stroke-width="1"/>
	</g>
	<text x="420" y="51.7" fill="#000000" font-family="Verdana" font-size="12">Paiment</text>
	<text x="404" y="76.8" fill="#000000" font-family="Verdana" font-size="12">Id_Pmt</text>
	<line x1="404" y1="79" x2="449" y2="79" stroke="#000000" stroke-width="1"/>
	<text x="404" y="93.8" fill="#000000" font-family="Verdana" font-size="12">Montant_Pmt</text>
</g>

<!-- Entity Thème -->
<g id="entity-Thème">
	<g id="frame-Thème">
		<rect x="25" y="438" width="70" height="25" fill="#fdb863" stroke="#fdb863" stroke-width="0"/>
		<rect x="25" y="463.0" width="70" height="43" fill="#fee0b6" stroke="#fee0b6" stroke-width="0"/>
		<rect x="25" y="438" width="70" height="68" fill="none" stroke="#e08214" stroke-width="2"/>
		<line x1="25" y1="463" x2="95" y2="463" stroke="#e08214" stroke-width="1"/>
	</g>
	<text x="39" y="455.7" fill="#000000" font-family="Verdana" font-size="12">Thème</text>
	<text x="30" y="480.8" fill="#000000" font-family="Verdana" font-size="12">Id_theme</text>
	<line x1="30" y1="483" x2="90" y2="483" stroke="#000000" stroke-width="1"/>
	<text x="30" y="497.8" fill="#000000" font-family="Verdana" font-size="12">Libellé</text>
</g>

<!-- Entity Auteur -->
<g id="entity-Auteur">
	<g id="frame-Auteur">
		<rect x="9" y="9" width="102" height="25" fill="#fdb863" stroke="#fdb863" stroke-width="0"/>
		<rect x="9" y="34.0" width="102" height="93" fill="#fee0b6" stroke="#fee0b6" stroke-width="0"/>
		<rect x="9" y="9" width="102" height="118" fill="none" stroke="#e08214" stroke-width="2"/>
		<line x1="9" y1="34" x2="111" y2="34" stroke="#e08214" stroke-width="1"/>
	</g>
	<text x="39" y="26.7" fill="#000000" font-family="Verdana" font-size="12">Auteur</text>
	<text x="14" y="51.7" fill="#000000" font-family="Verdana" font-size="12">Id.auteur</text>
	<line x1="14" y1="54" x2="71" y2="54" stroke="#000000" stroke-width="1"/>
	<text x="14" y="68.8" fill="#000000" font-family="Verdana" font-size="12">Nom.auteur</text>
	<text x="14" y="85.8" fill="#000000" font-family="Verdana" font-size="12">Prenom.auteur</text>
	<text x="14" y="102.8" fill="#000000" font-family="Verdana" font-size="12">Pays.auteur</text>
	<text x="14" y="119.8" fill="#000000" font-family="Verdana" font-size="12">Ville.auteur</text>
</g>

<!-- Entity Editeur -->
<g id="entity-Editeur">
	<g id="frame-Editeur">
		<rect x="281" y="26" width="86" height="25" fill="#fdb863" stroke="#fdb863" stroke-width="0"/>
		<rect x="281" y="51.0" width="86" height="59" fill="#fee0b6" stroke="#fee0b6" stroke-width="0"/>
		<rect x="281" y="26" width="86" height="84" fill="none" stroke="#e08214" stroke-width="2"/>
		<line x1="281" y1="51" x2="367" y2="51" stroke="#e08214" stroke-width="1"/>
	</g>
	<text x="302" y="43.7" fill="#000000" font-family="Verdana" font-size="12">Editeur</text>
	<text x="286" y="68.8" fill="#000000" font-family="Verdana" font-size="12">Id.editeur</text>
	<line x1="286" y1="71" x2="346" y2="71" stroke="#000000" stroke-width="1"/>
	<text x="286" y="85.8" fill="#000000" font-family="Verdana" font-size="12">Nom.editeur</text>
	<text x="286" y="102.8" fill="#000000" font-family="Verdana" font-size="12">Pays.editeur</text>
</g>

<!-- Entity Client -->
<g id="entity-Client">
	<g id="frame-Client">
		<rect x="509" y="387" width="82" height="25" fill="#fdb863" stroke="#fdb863" stroke-width="0"/>
		<rect x="509" y="412.0" width="82" height="145" fill="#fee0b6" stroke="#fee0b6" stroke-width="0"/>
		<rect x="509" y="387" width="82" height="170" fill="none" stroke="#e08214" stroke-width="2"/>
		<line x1="509" y1="412" x2="591" y2="412" stroke="#e08214" stroke-width="1"/>
	</g>
	<text x="532" y="404.7" fill="#000000" font-family="Verdana" font-size="12">Client</text>
	<text x="514" y="429.7" fill="#000000" font-family="Verdana" font-size="12">Id_Clt</text>
	<line x1="514" y1="432" x2="552" y2="432" stroke="#000000" stroke-width="1"/>
	<text x="514" y="446.7" fill="#000000" font-family="Verdana" font-size="12">Nom_Clt</text>
	<text x="514" y="463.7" fill="#000000" font-family="Verdana" font-size="12">Prenom_Clt</text>
	<text x="514" y="480.8" fill="#000000" font-family="Verdana" font-size="12">Adr_Clt</text>
	<text x="514" y="497.8" fill="#000000" font-family="Verdana" font-size="12">Cp_Clt</text>
	<text x="514" y="514.8" fill="#000000" font-family="Verdana" font-size="12">Ville_Clt</text>
	<text x="514" y="531.8" fill="#000000" font-family="Verdana" font-size="12">Tél_Clt</text>
	<text x="514" y="548.8" fill="#000000" font-family="Verdana" font-size="12">email_Clt</text>
</g>
</svg>